# xmcd
#
# Track frame offsets:
#	150
#	16703
#	31247
#	52307
#	75201
#	94264
#	118959
#	137950
#	170713
#	191967
#	211530
#
# Disc length: 3410 seconds
#
# Revision: 1
# Processed by: cddbd v1.5.1PL0 Copyright (c) Steve Scherf et al.
# Submitted via: audiograbber 1.83.01
#
DISCID=950d500b
DTITLE=David Gogo - Halfway to Memphis
DYEAR=2001
DGENRE=Blues
TTITLE0=Louisiana Blues
TTITLE1=Click Clack
TTITLE2=Nightlife
TTITLE3=Bad Faces
TTITLE4=Soul Fever
TTITLE5=Halfway To Memphis
TTITLE6=Rollin' And Tumblin'
TTITLE7=This Is A Man's World
TTITLE8=(I Gotta) Testify
TTITLE9=I Should Have Lied
TTITLE10=Blues Medley
EXTD=
EXTT0=
EXTT1=
EXTT2=
EXTT3=
EXTT4=
EXTT5=
EXTT6=
EXTT7=
EXTT8=
EXTT9=
EXTT10=
PLAYORDER=
